<svg width="312" height="71" viewBox="0 0 312 71" fill="none" xmlns="http://www.w3.org/2000/svg">
<g filter="url(#filter0_di_55_5022)">
<mask id="mask0_55_5022" style="mask-type:alpha" maskUnits="userSpaceOnUse" x="4" y="2" width="304" height="63">
<rect x="4" y="2" width="303.529" height="62.6471" rx="24" fill="#73B172"/>
</mask>
<g mask="url(#mask0_55_5022)">
<rect x="198.549" y="-277.693" width="5.32911" height="392.451" transform="rotate(45 198.549 -277.693)" fill="#F5F5F5"/>
<rect x="202.317" y="-273.925" width="5.32911" height="392.451" transform="rotate(45 202.317 -273.925)" fill="#D74242"/>
<rect x="206.085" y="-270.157" width="5.32911" height="392.451" transform="rotate(45 206.085 -270.157)" fill="#F5F5F5"/>
<rect x="209.853" y="-266.388" width="5.32911" height="392.451" transform="rotate(45 209.853 -266.388)" fill="#D74242"/>
<rect x="213.622" y="-262.62" width="5.32911" height="392.451" transform="rotate(45 213.622 -262.62)" fill="#F5F5F5"/>
<rect x="217.39" y="-258.852" width="5.32911" height="392.451" transform="rotate(45 217.39 -258.852)" fill="#D74242"/>
<rect x="221.158" y="-255.084" width="5.32911" height="392.451" transform="rotate(45 221.158 -255.084)" fill="#F5F5F5"/>
<rect x="224.926" y="-251.315" width="5.32911" height="392.451" transform="rotate(45 224.926 -251.315)" fill="#D74242"/>
<rect x="228.695" y="-247.547" width="5.32911" height="392.451" transform="rotate(45 228.695 -247.547)" fill="#F5F5F5"/>
<rect x="232.463" y="-243.779" width="5.32911" height="392.451" transform="rotate(45 232.463 -243.779)" fill="#D74242"/>
<rect x="236.231" y="-240.011" width="5.32911" height="392.451" transform="rotate(45 236.231 -240.011)" fill="#F5F5F5"/>
<rect x="239.999" y="-236.242" width="5.32911" height="392.451" transform="rotate(45 239.999 -236.242)" fill="#D74242"/>
<rect x="243.768" y="-232.474" width="5.32911" height="392.451" transform="rotate(45 243.768 -232.474)" fill="#F5F5F5"/>
<rect x="247.536" y="-228.706" width="5.32911" height="392.451" transform="rotate(45 247.536 -228.706)" fill="#D74242"/>
<rect x="251.304" y="-224.938" width="5.32911" height="392.451" transform="rotate(45 251.304 -224.938)" fill="#F5F5F5"/>
<rect x="255.072" y="-221.169" width="5.32911" height="392.451" transform="rotate(45 255.072 -221.169)" fill="#D74242"/>
<rect x="258.841" y="-217.401" width="5.32911" height="392.451" transform="rotate(45 258.841 -217.401)" fill="#F5F5F5"/>
<rect x="262.609" y="-213.633" width="5.32911" height="392.451" transform="rotate(45 262.609 -213.633)" fill="#D74242"/>
<rect x="266.377" y="-209.865" width="5.32911" height="392.451" transform="rotate(45 266.377 -209.865)" fill="#F5F5F5"/>
<rect x="270.145" y="-206.096" width="5.32911" height="392.451" transform="rotate(45 270.145 -206.096)" fill="#D74242"/>
<rect x="273.914" y="-202.328" width="5.32911" height="392.451" transform="rotate(45 273.914 -202.328)" fill="#F5F5F5"/>
<rect x="277.682" y="-198.56" width="5.32911" height="392.451" transform="rotate(45 277.682 -198.56)" fill="#D74242"/>
<rect x="281.45" y="-194.792" width="5.32911" height="392.451" transform="rotate(45 281.45 -194.792)" fill="#F5F5F5"/>
<rect x="285.218" y="-191.023" width="5.32911" height="392.451" transform="rotate(45 285.218 -191.023)" fill="#D74242"/>
<rect x="288.987" y="-187.255" width="5.32911" height="392.451" transform="rotate(45 288.987 -187.255)" fill="#F5F5F5"/>
<rect x="292.755" y="-183.487" width="5.32911" height="392.451" transform="rotate(45 292.755 -183.487)" fill="#D74242"/>
<rect x="296.523" y="-179.719" width="5.32911" height="392.451" transform="rotate(45 296.523 -179.719)" fill="#F5F5F5"/>
<rect x="300.291" y="-175.951" width="5.32911" height="392.451" transform="rotate(45 300.291 -175.951)" fill="#D74242"/>
<rect x="304.06" y="-172.182" width="5.32911" height="392.451" transform="rotate(45 304.06 -172.182)" fill="#F5F5F5"/>
<rect x="307.828" y="-168.414" width="5.32911" height="392.451" transform="rotate(45 307.828 -168.414)" fill="#D74242"/>
<rect x="311.596" y="-164.646" width="5.32911" height="392.451" transform="rotate(45 311.596 -164.646)" fill="#F5F5F5"/>
<rect x="315.364" y="-160.877" width="5.32911" height="392.451" transform="rotate(45 315.364 -160.877)" fill="#D74242"/>
<rect x="319.133" y="-157.109" width="5.32911" height="392.451" transform="rotate(45 319.133 -157.109)" fill="#F5F5F5"/>
<rect x="322.901" y="-153.341" width="5.32911" height="392.451" transform="rotate(45 322.901 -153.341)" fill="#D74242"/>
<rect x="326.669" y="-149.573" width="5.32911" height="392.451" transform="rotate(45 326.669 -149.573)" fill="#F5F5F5"/>
<rect x="330.437" y="-145.804" width="5.32911" height="392.451" transform="rotate(45 330.437 -145.804)" fill="#D74242"/>
<rect x="334.206" y="-142.036" width="5.32911" height="392.451" transform="rotate(45 334.206 -142.036)" fill="#F5F5F5"/>
<rect x="337.974" y="-138.268" width="5.32911" height="392.451" transform="rotate(45 337.974 -138.268)" fill="#D74242"/>
<rect x="341.742" y="-134.5" width="5.32911" height="392.451" transform="rotate(45 341.742 -134.5)" fill="#F5F5F5"/>
<rect x="345.51" y="-130.731" width="5.32911" height="392.451" transform="rotate(45 345.51 -130.731)" fill="#D74242"/>
<rect x="349.279" y="-126.963" width="5.32911" height="392.451" transform="rotate(45 349.279 -126.963)" fill="#F5F5F5"/>
<rect x="353.047" y="-123.195" width="5.32911" height="392.451" transform="rotate(45 353.047 -123.195)" fill="#D74242"/>
<rect x="356.815" y="-119.427" width="5.32911" height="392.451" transform="rotate(45 356.815 -119.427)" fill="#F5F5F5"/>
<rect x="360.583" y="-115.659" width="5.32911" height="392.451" transform="rotate(45 360.583 -115.659)" fill="#D74242"/>
<rect x="364.352" y="-111.89" width="5.32911" height="392.451" transform="rotate(45 364.352 -111.89)" fill="#F5F5F5"/>
<rect x="368.12" y="-108.122" width="5.32911" height="392.451" transform="rotate(45 368.12 -108.122)" fill="#D74242"/>
<rect x="371.888" y="-104.354" width="5.32911" height="392.451" transform="rotate(45 371.888 -104.354)" fill="#F5F5F5"/>
<rect x="375.656" y="-100.585" width="5.32911" height="392.451" transform="rotate(45 375.656 -100.585)" fill="#D74242"/>
<rect x="379.425" y="-96.8173" width="5.32911" height="392.451" transform="rotate(45 379.425 -96.8173)" fill="#F5F5F5"/>
<rect x="383.193" y="-93.049" width="5.32911" height="392.451" transform="rotate(45 383.193 -93.049)" fill="#D74242"/>
<rect x="386.961" y="-89.2808" width="5.32911" height="392.451" transform="rotate(45 386.961 -89.2808)" fill="#F5F5F5"/>
<rect x="390.729" y="-85.5126" width="5.32911" height="392.451" transform="rotate(45 390.729 -85.5126)" fill="#D74242"/>
<rect x="394.498" y="-81.7444" width="5.32911" height="392.451" transform="rotate(45 394.498 -81.7444)" fill="#F5F5F5"/>
<rect x="398.266" y="-77.9761" width="5.32911" height="392.451" transform="rotate(45 398.266 -77.9761)" fill="#D74242"/>
<rect x="402.034" y="-74.2079" width="5.32911" height="392.451" transform="rotate(45 402.034 -74.2079)" fill="#F5F5F5"/>
<rect x="405.802" y="-70.4396" width="5.32911" height="392.451" transform="rotate(45 405.802 -70.4396)" fill="#D74242"/>
<rect x="409.571" y="-66.6714" width="5.32911" height="392.451" transform="rotate(45 409.571 -66.6714)" fill="#F5F5F5"/>
<rect x="413.339" y="-62.9031" width="5.32911" height="392.451" transform="rotate(45 413.339 -62.9031)" fill="#D74242"/>
<rect x="417.107" y="-59.1349" width="5.32911" height="392.451" transform="rotate(45 417.107 -59.1349)" fill="#F5F5F5"/>
<rect x="420.875" y="-55.3665" width="5.32911" height="392.451" transform="rotate(45 420.875 -55.3665)" fill="#D74242"/>
<rect x="424.644" y="-51.5983" width="5.32911" height="392.451" transform="rotate(45 424.644 -51.5983)" fill="#F5F5F5"/>
</g>
</g>
<g filter="url(#filter1_i_55_5022)">
<rect x="11.0588" y="8.17651" width="289.412" height="50.2941" rx="24" fill="#73B172"/>
<g filter="url(#filter2_di_55_5022)">
<path d="M94.7862 35.8356C92.0142 35.7236 91.0622 34.6036 91.0622 32.0836C91.0622 29.2276 91.0622 25.0836 91.1742 23.6836C91.2862 22.4516 91.9022 21.8916 93.4142 21.8076C95.1782 21.6956 106.602 21.6396 108.394 21.6956C109.878 21.7516 110.438 22.4516 110.438 23.4876C110.438 24.6076 109.962 25.3076 108.254 25.2516C105.118 25.1396 97.6142 25.1956 95.9342 25.3076C95.4582 25.3356 95.3742 25.4476 95.3462 25.8676C95.3462 26.0636 95.3462 26.5116 95.3182 27.0716C99.5182 27.0436 105.538 27.0156 108.114 27.0156C109.598 27.0156 110.158 27.7156 110.158 28.7516C110.158 29.8716 109.682 30.5156 107.974 30.4876C105.594 30.4316 98.8182 30.4596 95.3462 30.5436V31.3556C95.4022 32.1396 95.5702 32.2796 96.4102 32.3076C99.4902 32.4196 103.998 32.3356 108.45 32.1956C110.298 32.1396 110.914 32.8396 110.914 33.9316C110.914 35.1636 110.186 35.6396 108.674 35.7236C104.306 35.9756 98.2022 35.9756 94.7862 35.8356ZM88.7662 39.5316C88.8502 38.4396 89.3542 37.6836 91.1462 37.7396C97.2222 37.9636 104.25 38.0476 110.214 37.5716C112.118 37.4316 112.79 38.5236 112.79 39.6716C112.79 40.7636 112.286 41.3236 110.858 41.4636C107.078 41.8276 96.2142 42.3596 90.7542 41.6316C89.2982 41.4356 88.6822 40.6236 88.7662 39.5316ZM118.612 40.4556C116.092 40.2876 115.448 39.6996 115.364 37.9356C115.28 36.0596 115.196 33.0356 115.224 31.4676C115.252 30.2356 115.952 29.6756 117.464 29.5916C118.584 29.5356 121.412 29.4516 123.708 29.4516C124.1 29.4516 124.212 29.3676 124.212 29.0036C124.24 28.2476 124.24 27.4916 124.212 26.9316C124.156 26.2876 124.044 26.2036 123.204 26.1476C122.196 26.0636 120.236 26.0636 117.8 26.2596C116.008 26.3996 115.224 25.5876 115.224 24.3556C115.224 23.1236 115.952 22.8156 117.464 22.7036C120.32 22.4796 121.496 22.3956 125.136 22.6756C127.656 22.8716 128.328 23.2356 128.44 24.9996C128.58 27.1276 128.608 29.3116 128.524 31.2996C128.496 32.1956 128.048 32.8956 126.34 32.9796C124.52 33.0636 121.104 33.0636 120.18 33.0636C119.704 33.0636 119.592 33.2036 119.592 33.6236C119.592 34.2676 119.62 35.0516 119.62 35.6676C119.62 36.4516 119.788 36.5356 120.628 36.5916C121.944 36.6756 125.164 36.7036 127.6 36.5076C129.392 36.3676 130.148 37.0956 130.176 38.3276C130.204 39.5876 129.448 40.2036 127.936 40.3156C125.08 40.5396 121.384 40.6516 118.612 40.4556ZM132.5 23.5156C132.472 21.9756 133.172 21.1356 134.544 21.1356C135.804 21.1356 136.756 21.8356 136.868 24.4396C137.008 27.7436 137.036 36.1156 136.84 40.3156C136.756 42.1076 136.056 43.2276 134.656 43.2276C133.256 43.2276 132.472 42.1916 132.528 40.3156C132.64 34.7156 132.584 29.1156 132.5 23.5156ZM159.294 44.0956C158.23 44.0956 157.054 43.3396 156.998 41.8836C156.942 40.7636 156.942 38.1036 156.97 36.2556C154.226 36.2276 151.566 36.1436 149.522 35.9756C147.814 35.8356 147.198 35.1076 147.282 34.0156C147.366 32.9236 147.87 32.1676 149.662 32.2236C155.738 32.4476 162.878 32.4756 168.73 32.1956C170.634 32.1116 171.25 32.8676 171.306 34.0156C171.362 35.1076 170.802 35.8076 169.374 35.9476C167.75 36.1156 164.866 36.2276 161.702 36.2556C161.674 37.6276 161.618 39.6996 161.618 41.1556C161.618 43.1436 160.414 44.0956 159.294 44.0956ZM148.598 23.4876C148.598 22.2556 149.326 21.4996 150.838 21.4716C152.35 21.4436 154.03 21.4156 155.654 21.4436C157.894 21.4716 158.118 22.5076 158.174 24.6356C158.23 26.8756 158.202 28.1636 158.062 29.4236C157.922 30.7676 157.222 31.5516 155.934 31.5516C154.674 31.5516 153.974 30.9636 154.058 29.5076C154.086 28.5556 154.142 27.3236 154.142 26.0356C154.142 25.4196 153.946 25.2796 153.414 25.2796L150.95 25.3076C149.326 25.3076 148.598 24.7196 148.598 23.4876ZM159.042 23.4876C159.042 22.2556 159.77 21.5276 161.282 21.4716C163.186 21.3876 164.922 21.3876 166.574 21.4996C168.814 21.6396 169.094 22.5636 169.094 24.6916C169.094 26.4836 169.038 28.2756 168.898 29.5636C168.758 30.8796 167.946 31.6076 166.686 31.4956C165.482 31.3836 164.838 30.8516 164.922 29.4236C165.006 28.0796 165.034 27.0996 165.034 26.1476C165.034 25.5316 164.866 25.3356 164.334 25.3076C163.41 25.2516 162.822 25.2516 161.394 25.3076C159.77 25.3636 159.042 24.7196 159.042 23.4876ZM176.988 40.1756C174.468 40.0076 173.768 39.4196 173.74 37.6556C173.656 33.2876 173.516 29.8996 173.6 24.5796C173.628 23.3476 174.328 22.7596 175.84 22.7036C178.78 22.6196 182.252 22.5636 185.052 22.7036C186.564 22.7876 187.236 23.3476 187.32 25.1116C187.488 29.1716 187.376 33.2876 187.292 37.6556C187.264 39.4196 186.564 40.0076 184.044 40.1756C181.804 40.3436 179.228 40.3436 176.988 40.1756ZM177.884 26.7076C177.856 29.7876 177.884 33.4556 177.912 35.4156C177.912 36.1996 178.08 36.2836 178.92 36.3396C179.676 36.3956 181.412 36.3956 182.112 36.3396C182.952 36.2836 183.092 36.1996 183.12 35.4156C183.204 33.4556 183.176 29.5636 183.008 26.7076C182.98 26.2876 182.896 26.1756 182.42 26.1476C181.384 26.0916 179.396 26.1196 178.472 26.1476C177.996 26.1756 177.884 26.2876 177.884 26.7076ZM190.96 23.5156C190.876 21.9756 191.408 21.1356 192.78 21.1356C194.04 21.1356 195.132 21.8356 195.328 24.4396C195.58 27.6036 195.608 36.1156 195.412 40.3156C195.328 42.1076 194.628 43.2276 193.228 43.2276C191.828 43.2276 191.016 42.1916 191.072 40.3156C191.24 35.4156 191.184 28.8356 191.072 26.2596C191.044 25.5036 191.016 24.4396 190.96 23.5156ZM209.017 41.0436C207.897 40.9596 207.113 40.0916 207.281 38.0756C207.589 34.6036 207.757 30.0396 207.673 27.3796C207.645 26.5956 207.505 26.5116 206.665 26.4556C205.657 26.3716 203.669 26.2876 201.233 26.4836C199.441 26.6236 198.657 25.7556 198.657 24.5236C198.657 23.2916 199.385 22.7876 200.897 22.6756C203.753 22.4516 205.349 22.3676 208.989 22.6476C211.509 22.8436 212.013 23.4316 212.097 25.1676C212.321 29.5076 212.209 34.7156 211.705 38.4396C211.509 39.9796 210.781 41.1556 209.017 41.0436ZM216.633 23.5156C216.549 21.9756 217.165 21.1356 218.537 21.1356C219.797 21.1356 220.889 21.8356 221.085 24.4396C221.337 27.6036 221.365 36.1156 221.169 40.3156C221.085 42.1076 220.385 43.2276 218.985 43.2276C217.585 43.2276 216.717 42.1916 216.857 40.3156C217.137 36.3396 217.053 30.3196 216.913 27.1836C216.857 25.5036 216.689 24.4396 216.633 23.5156Z" fill="white"/>
</g>
</g>
<defs>
<filter id="filter0_di_55_5022" x="0" y="0" width="311.529" height="70.6471" filterUnits="userSpaceOnUse" colorInterpolationFilters="sRGB">
<feFlood floodOpacity="0" result="BackgroundImageFix"/>
<feColorMatrix in="SourceAlpha" type="matrix" values="0 0 0 0 0 0 0 0 0 0 0 0 0 0 0 0 0 0 127 0" result="hardAlpha"/>
<feOffset dy="2"/>
<feGaussianBlur stdDeviation="2"/>
<feComposite in2="hardAlpha" operator="out"/>
<feColorMatrix type="matrix" values="0 0 0 0 0 0 0 0 0 0 0 0 0 0 0 0 0 0 0.25 0"/>
<feBlend mode="normal" in2="BackgroundImageFix" result="effect1_dropShadow_55_5022"/>
<feBlend mode="normal" in="SourceGraphic" in2="effect1_dropShadow_55_5022" result="shape"/>
<feColorMatrix in="SourceAlpha" type="matrix" values="0 0 0 0 0 0 0 0 0 0 0 0 0 0 0 0 0 0 127 0" result="hardAlpha"/>
<feOffset dy="4"/>
<feGaussianBlur stdDeviation="4"/>
<feComposite in2="hardAlpha" operator="arithmetic" k2="-1" k3="1"/>
<feColorMatrix type="matrix" values="0 0 0 0 0 0 0 0 0 0 0 0 0 0 0 0 0 0 0.25 0"/>
<feBlend mode="normal" in2="shape" result="effect2_innerShadow_55_5022"/>
</filter>
<filter id="filter1_i_55_5022" x="11.0588" y="0.176514" width="289.412" height="58.2941" filterUnits="userSpaceOnUse" colorInterpolationFilters="sRGB">
<feFlood floodOpacity="0" result="BackgroundImageFix"/>
<feBlend mode="normal" in="SourceGraphic" in2="BackgroundImageFix" result="shape"/>
<feColorMatrix in="SourceAlpha" type="matrix" values="0 0 0 0 0 0 0 0 0 0 0 0 0 0 0 0 0 0 127 0" result="hardAlpha"/>
<feOffset dy="-8"/>
<feGaussianBlur stdDeviation="12"/>
<feComposite in2="hardAlpha" operator="arithmetic" k2="-1" k3="1"/>
<feColorMatrix type="matrix" values="0 0 0 0 0.0114859 0 0 0 0 0.18527 0 0 0 0 0.0184373 0 0 0 0.6 0"/>
<feBlend mode="normal" in2="shape" result="effect1_innerShadow_55_5022"/>
</filter>
<filter id="filter2_di_55_5022" x="86.6822" y="20.1356" width="138.683" height="28.96" filterUnits="userSpaceOnUse" colorInterpolationFilters="sRGB">
<feFlood floodOpacity="0" result="BackgroundImageFix"/>
<feColorMatrix in="SourceAlpha" type="matrix" values="0 0 0 0 0 0 0 0 0 0 0 0 0 0 0 0 0 0 127 0" result="hardAlpha"/>
<feOffset dx="1" dy="2"/>
<feGaussianBlur stdDeviation="1.5"/>
<feComposite in2="hardAlpha" operator="out"/>
<feColorMatrix type="matrix" values="0 0 0 0 0.138868 0 0 0 0 0.143813 0 0 0 0 0.161344 0 0 0 0.15 0"/>
<feBlend mode="normal" in2="BackgroundImageFix" result="effect1_dropShadow_55_5022"/>
<feBlend mode="normal" in="SourceGraphic" in2="effect1_dropShadow_55_5022" result="shape"/>
<feColorMatrix in="SourceAlpha" type="matrix" values="0 0 0 0 0 0 0 0 0 0 0 0 0 0 0 0 0 0 127 0" result="hardAlpha"/>
<feOffset dy="1"/>
<feGaussianBlur stdDeviation="0.5"/>
<feComposite in2="hardAlpha" operator="arithmetic" k2="-1" k3="1"/>
<feColorMatrix type="matrix" values="0 0 0 0 0.714323 0 0 0 0 0.714323 0 0 0 0 0.714323 0 0 0 0.45 0"/>
<feBlend mode="normal" in2="shape" result="effect2_innerShadow_55_5022"/>
</filter>
</defs>
</svg>
