<svg width="360" height="473" viewBox="0 0 360 473" fill="none" xmlns="http://www.w3.org/2000/svg">
<g filter="url(#filter0_bd_76_692)">
<g clip-path="url(#clip0_76_692)">
<g clip-path="url(#clip1_76_692)">
<rect width="920" height="920" transform="translate(-280 -227)" fill="white"/>
<rect x="241.009" y="-312.679" width="4.39881" height="764.593" transform="rotate(45 241.009 -312.679)" fill="#D74242"/>
<rect x="244.119" y="-309.568" width="4.39881" height="764.593" transform="rotate(45 244.119 -309.568)" fill="#F5F5F5"/>
<rect x="247.23" y="-306.458" width="4.39881" height="764.593" transform="rotate(45 247.23 -306.458)" fill="#D74242"/>
<rect x="250.34" y="-303.347" width="4.39881" height="764.593" transform="rotate(45 250.34 -303.347)" fill="#F5F5F5"/>
<rect x="253.451" y="-300.237" width="4.39881" height="764.593" transform="rotate(45 253.451 -300.237)" fill="#D74242"/>
<rect x="256.561" y="-297.126" width="4.39881" height="764.593" transform="rotate(45 256.561 -297.126)" fill="#F5F5F5"/>
<rect x="259.672" y="-294.016" width="4.39881" height="764.593" transform="rotate(45 259.672 -294.016)" fill="#D74242"/>
<rect x="262.782" y="-290.906" width="4.39881" height="764.593" transform="rotate(45 262.782 -290.906)" fill="#F5F5F5"/>
<rect x="265.892" y="-287.795" width="4.39881" height="764.593" transform="rotate(45 265.892 -287.795)" fill="#D74242"/>
<rect x="269.003" y="-284.685" width="4.39881" height="764.593" transform="rotate(45 269.003 -284.685)" fill="#F5F5F5"/>
<rect x="272.113" y="-281.574" width="4.39881" height="764.593" transform="rotate(45 272.113 -281.574)" fill="#D74242"/>
<rect x="275.224" y="-278.464" width="4.39881" height="764.593" transform="rotate(45 275.224 -278.464)" fill="#F5F5F5"/>
<rect x="278.334" y="-275.353" width="4.39881" height="764.593" transform="rotate(45 278.334 -275.353)" fill="#D74242"/>
<rect x="281.444" y="-272.243" width="4.39881" height="764.593" transform="rotate(45 281.444 -272.243)" fill="#F5F5F5"/>
<rect x="284.555" y="-269.133" width="4.39881" height="764.593" transform="rotate(45 284.555 -269.133)" fill="#D74242"/>
<rect x="287.665" y="-266.022" width="4.39881" height="764.593" transform="rotate(45 287.665 -266.022)" fill="#F5F5F5"/>
<rect x="290.776" y="-262.912" width="4.39881" height="764.593" transform="rotate(45 290.776 -262.912)" fill="#D74242"/>
<rect x="293.886" y="-259.801" width="4.39881" height="764.593" transform="rotate(45 293.886 -259.801)" fill="#F5F5F5"/>
<rect x="296.997" y="-256.691" width="4.39881" height="764.593" transform="rotate(45 296.997 -256.691)" fill="#D74242"/>
<rect x="300.107" y="-253.581" width="4.39881" height="764.593" transform="rotate(45 300.107 -253.581)" fill="#F5F5F5"/>
<rect x="303.217" y="-250.47" width="4.39881" height="764.593" transform="rotate(45 303.217 -250.47)" fill="#D74242"/>
<rect x="306.328" y="-247.36" width="4.39881" height="764.593" transform="rotate(45 306.328 -247.36)" fill="#F5F5F5"/>
<rect x="309.438" y="-244.249" width="4.39881" height="764.593" transform="rotate(45 309.438 -244.249)" fill="#D74242"/>
<rect x="312.549" y="-241.139" width="4.39881" height="764.593" transform="rotate(45 312.549 -241.139)" fill="#F5F5F5"/>
<rect x="315.659" y="-238.028" width="4.39881" height="764.593" transform="rotate(45 315.659 -238.028)" fill="#D74242"/>
<rect x="318.77" y="-234.918" width="4.39881" height="764.593" transform="rotate(45 318.77 -234.918)" fill="#F5F5F5"/>
<rect x="321.88" y="-231.807" width="4.39881" height="764.593" transform="rotate(45 321.88 -231.807)" fill="#D74242"/>
<rect x="324.99" y="-228.697" width="4.39881" height="764.593" transform="rotate(45 324.99 -228.697)" fill="#F5F5F5"/>
<rect x="328.101" y="-225.586" width="4.39881" height="764.593" transform="rotate(45 328.101 -225.586)" fill="#D74242"/>
<rect x="331.211" y="-222.476" width="4.39881" height="764.593" transform="rotate(45 331.211 -222.476)" fill="#F5F5F5"/>
<rect x="334.322" y="-219.366" width="4.39881" height="764.593" transform="rotate(45 334.322 -219.366)" fill="#D74242"/>
<rect x="337.432" y="-216.255" width="4.39881" height="764.593" transform="rotate(45 337.432 -216.255)" fill="#F5F5F5"/>
<rect x="340.542" y="-213.145" width="4.39881" height="764.593" transform="rotate(45 340.542 -213.145)" fill="#D74242"/>
<rect x="343.653" y="-210.034" width="4.39881" height="764.593" transform="rotate(45 343.653 -210.034)" fill="#F5F5F5"/>
<rect x="346.763" y="-206.924" width="4.39881" height="764.593" transform="rotate(45 346.763 -206.924)" fill="#D74242"/>
<rect x="349.874" y="-203.813" width="4.39881" height="764.593" transform="rotate(45 349.874 -203.813)" fill="#F5F5F5"/>
<rect x="352.984" y="-200.703" width="4.39881" height="764.593" transform="rotate(45 352.984 -200.703)" fill="#D74242"/>
<rect x="356.095" y="-197.593" width="4.39881" height="764.593" transform="rotate(45 356.095 -197.593)" fill="#F5F5F5"/>
<rect x="359.205" y="-194.482" width="4.39881" height="764.593" transform="rotate(45 359.205 -194.482)" fill="#D74242"/>
<rect x="362.315" y="-191.372" width="4.39881" height="764.593" transform="rotate(45 362.315 -191.372)" fill="#F5F5F5"/>
<rect x="365.426" y="-188.261" width="4.39881" height="764.593" transform="rotate(45 365.426 -188.261)" fill="#D74242"/>
<rect x="368.536" y="-185.151" width="4.39881" height="764.593" transform="rotate(45 368.536 -185.151)" fill="#F5F5F5"/>
<rect x="371.647" y="-182.041" width="4.39881" height="764.593" transform="rotate(45 371.647 -182.041)" fill="#D74242"/>
<rect x="374.757" y="-178.93" width="4.39881" height="764.593" transform="rotate(45 374.757 -178.93)" fill="#F5F5F5"/>
<rect x="377.868" y="-175.82" width="4.39881" height="764.593" transform="rotate(45 377.868 -175.82)" fill="#D74242"/>
<rect x="380.978" y="-172.709" width="4.39881" height="764.593" transform="rotate(45 380.978 -172.709)" fill="#F5F5F5"/>
<rect x="384.088" y="-169.599" width="4.39881" height="764.593" transform="rotate(45 384.088 -169.599)" fill="#D74242"/>
<rect x="387.199" y="-166.488" width="4.39881" height="764.593" transform="rotate(45 387.199 -166.488)" fill="#F5F5F5"/>
<rect x="390.309" y="-163.378" width="4.39881" height="764.593" transform="rotate(45 390.309 -163.378)" fill="#D74242"/>
<rect x="393.42" y="-160.267" width="4.39881" height="764.593" transform="rotate(45 393.42 -160.267)" fill="#F5F5F5"/>
<rect x="396.53" y="-157.157" width="4.39881" height="764.593" transform="rotate(45 396.53 -157.157)" fill="#D74242"/>
<rect x="399.641" y="-154.047" width="4.39881" height="764.593" transform="rotate(45 399.641 -154.047)" fill="#F5F5F5"/>
<rect x="402.751" y="-150.936" width="4.39881" height="764.593" transform="rotate(45 402.751 -150.936)" fill="#D74242"/>
<rect x="405.861" y="-147.826" width="4.39881" height="764.593" transform="rotate(45 405.861 -147.826)" fill="#F5F5F5"/>
<rect x="408.972" y="-144.715" width="4.39881" height="764.593" transform="rotate(45 408.972 -144.715)" fill="#D74242"/>
<rect x="412.082" y="-141.605" width="4.39881" height="764.593" transform="rotate(45 412.082 -141.605)" fill="#F5F5F5"/>
<rect x="415.193" y="-138.495" width="4.39881" height="764.593" transform="rotate(45 415.193 -138.495)" fill="#D74242"/>
<rect x="418.303" y="-135.384" width="4.39881" height="764.593" transform="rotate(45 418.303 -135.384)" fill="#F5F5F5"/>
<rect x="421.414" y="-132.274" width="4.39881" height="764.593" transform="rotate(45 421.414 -132.274)" fill="#D74242"/>
<rect x="424.524" y="-129.163" width="4.39881" height="764.593" transform="rotate(45 424.524 -129.163)" fill="#F5F5F5"/>
<rect x="427.635" y="-126.053" width="4.39881" height="764.593" transform="rotate(45 427.635 -126.053)" fill="#D74242"/>
<rect x="430.745" y="-122.943" width="4.39881" height="764.593" transform="rotate(45 430.745 -122.943)" fill="#F5F5F5"/>
<rect x="427.635" y="-126.053" width="4.39881" height="764.593" transform="rotate(45 427.635 -126.053)" fill="#D74242"/>
<rect x="430.745" y="-122.943" width="4.39881" height="764.593" transform="rotate(45 430.745 -122.943)" fill="#F5F5F5"/>
<rect x="427.635" y="-126.053" width="4.39881" height="764.593" transform="rotate(45 427.635 -126.053)" fill="#D74242"/>
<rect x="430.745" y="-122.943" width="4.39881" height="764.593" transform="rotate(45 430.745 -122.943)" fill="#F5F5F5"/>
<rect x="427.635" y="-126.053" width="4.39881" height="764.593" transform="rotate(45 427.635 -126.053)" fill="#D74242"/>
<rect x="430.745" y="-122.943" width="4.39881" height="764.593" transform="rotate(45 430.745 -122.943)" fill="#F5F5F5"/>
<rect x="427.635" y="-126.053" width="4.39881" height="764.593" transform="rotate(45 427.635 -126.053)" fill="#D74242"/>
<rect x="430.745" y="-122.943" width="4.39881" height="764.593" transform="rotate(45 430.745 -122.943)" fill="#F5F5F5"/>
<rect x="427.635" y="-126.053" width="4.39881" height="764.593" transform="rotate(45 427.635 -126.053)" fill="#D74242"/>
<rect x="430.745" y="-122.943" width="4.39881" height="764.593" transform="rotate(45 430.745 -122.943)" fill="#F5F5F5"/>
<rect x="427.635" y="-126.053" width="4.39881" height="764.593" transform="rotate(45 427.635 -126.053)" fill="#D74242"/>
<rect x="430.745" y="-122.943" width="4.39881" height="764.593" transform="rotate(45 430.745 -122.943)" fill="#F5F5F5"/>
<rect x="427.635" y="-126.053" width="4.39881" height="764.593" transform="rotate(45 427.635 -126.053)" fill="#D74242"/>
<rect x="430.745" y="-122.943" width="4.39881" height="764.593" transform="rotate(45 430.745 -122.943)" fill="#F5F5F5"/>
<rect x="427.635" y="-126.053" width="4.39881" height="764.593" transform="rotate(45 427.635 -126.053)" fill="#D74242"/>
<rect x="430.745" y="-122.943" width="4.39881" height="764.593" transform="rotate(45 430.745 -122.943)" fill="#F5F5F5"/>
<rect x="433.855" y="-119.832" width="4.39881" height="764.593" transform="rotate(45 433.855 -119.832)" fill="#D74242"/>
<rect x="436.966" y="-116.722" width="4.39881" height="764.593" transform="rotate(45 436.966 -116.722)" fill="#F5F5F5"/>
<rect x="440.076" y="-113.611" width="4.39881" height="764.593" transform="rotate(45 440.076 -113.611)" fill="#D74242"/>
<rect x="443.187" y="-110.501" width="4.39881" height="764.593" transform="rotate(45 443.187 -110.501)" fill="#F5F5F5"/>
<rect x="446.297" y="-107.39" width="4.39881" height="764.593" transform="rotate(45 446.297 -107.39)" fill="#D74242"/>
<rect x="449.408" y="-104.28" width="4.39881" height="764.593" transform="rotate(45 449.408 -104.28)" fill="#F5F5F5"/>
<rect x="452.518" y="-101.169" width="4.39881" height="764.593" transform="rotate(45 452.518 -101.169)" fill="#D74242"/>
<rect x="455.628" y="-98.059" width="4.39881" height="764.593" transform="rotate(45 455.628 -98.059)" fill="#F5F5F5"/>
<rect x="458.739" y="-94.9485" width="4.39881" height="764.593" transform="rotate(45 458.739 -94.9485)" fill="#D74242"/>
<rect x="461.849" y="-91.838" width="4.39881" height="764.593" transform="rotate(45 461.849 -91.838)" fill="#F5F5F5"/>
<rect x="464.96" y="-88.7278" width="4.39881" height="764.593" transform="rotate(45 464.96 -88.7278)" fill="#D74242"/>
<rect x="468.07" y="-85.6173" width="4.39881" height="764.593" transform="rotate(45 468.07 -85.6173)" fill="#F5F5F5"/>
<rect x="471.18" y="-82.5067" width="4.39881" height="764.593" transform="rotate(45 471.18 -82.5067)" fill="#D74242"/>
<rect x="474.291" y="-79.3962" width="4.39881" height="764.593" transform="rotate(45 474.291 -79.3962)" fill="#F5F5F5"/>
<rect x="477.401" y="-76.286" width="4.39881" height="764.593" transform="rotate(45 477.401 -76.286)" fill="#D74242"/>
<rect x="480.512" y="-73.1755" width="4.39881" height="764.593" transform="rotate(45 480.512 -73.1755)" fill="#F5F5F5"/>
<rect x="471.386" y="-58.2233" width="4.39881" height="764.593" transform="rotate(45 471.386 -58.2233)" fill="#D74242"/>
<rect x="474.497" y="-55.1128" width="4.39881" height="764.593" transform="rotate(45 474.497 -55.1128)" fill="#F5F5F5"/>
<rect x="477.607" y="-52.0024" width="4.39881" height="764.593" transform="rotate(45 477.607 -52.0024)" fill="#D74242"/>
<rect x="480.718" y="-48.892" width="4.39881" height="764.593" transform="rotate(45 480.718 -48.892)" fill="#F5F5F5"/>
<rect x="483.828" y="-45.7815" width="4.39881" height="764.593" transform="rotate(45 483.828 -45.7815)" fill="#D74242"/>
<rect x="486.939" y="-42.671" width="4.39881" height="764.593" transform="rotate(45 486.939 -42.671)" fill="#F5F5F5"/>
<rect x="490.049" y="-39.5608" width="4.39881" height="764.593" transform="rotate(45 490.049 -39.5608)" fill="#D74242"/>
<rect x="493.159" y="-36.4503" width="4.39881" height="764.593" transform="rotate(45 493.159 -36.4503)" fill="#F5F5F5"/>
<rect x="496.27" y="-33.3398" width="4.39881" height="764.593" transform="rotate(45 496.27 -33.3398)" fill="#D74242"/>
<rect x="499.38" y="-30.2294" width="4.39881" height="764.593" transform="rotate(45 499.38 -30.2294)" fill="#F5F5F5"/>
<rect x="502.491" y="-27.1189" width="4.39881" height="764.593" transform="rotate(45 502.491 -27.1189)" fill="#D74242"/>
<rect x="505.601" y="-24.0084" width="4.39881" height="764.593" transform="rotate(45 505.601 -24.0084)" fill="#F5F5F5"/>
<rect x="508.712" y="-20.8982" width="4.39881" height="764.593" transform="rotate(45 508.712 -20.8982)" fill="#D74242"/>
<rect x="511.822" y="-17.7877" width="4.39881" height="764.593" transform="rotate(45 511.822 -17.7877)" fill="#F5F5F5"/>
<rect x="514.932" y="-14.6774" width="4.39881" height="764.593" transform="rotate(45 514.932 -14.6774)" fill="#D74242"/>
<rect x="518.043" y="-11.5669" width="4.39881" height="764.593" transform="rotate(45 518.043 -11.5669)" fill="#F5F5F5"/>
<rect x="521.153" y="-8.45654" width="4.39881" height="764.593" transform="rotate(45 521.153 -8.45654)" fill="#D74242"/>
<rect x="524.264" y="-5.34607" width="4.39881" height="764.593" transform="rotate(45 524.264 -5.34607)" fill="#F5F5F5"/>
<rect x="527.374" y="-2.2356" width="4.39881" height="764.593" transform="rotate(45 527.374 -2.2356)" fill="#D74242"/>
<rect x="530.485" y="0.874878" width="4.39881" height="764.593" transform="rotate(45 530.485 0.874878)" fill="#F5F5F5"/>
<rect x="533.595" y="3.98523" width="4.39881" height="764.593" transform="rotate(45 533.595 3.98523)" fill="#D74242"/>
<rect x="536.705" y="7.0957" width="4.39881" height="764.593" transform="rotate(45 536.705 7.0957)" fill="#F5F5F5"/>
<rect x="539.816" y="10.2062" width="4.39881" height="764.593" transform="rotate(45 539.816 10.2062)" fill="#D74242"/>
<rect x="542.926" y="13.3167" width="4.39881" height="764.593" transform="rotate(45 542.926 13.3167)" fill="#F5F5F5"/>
<rect x="546.037" y="16.4271" width="4.39881" height="764.593" transform="rotate(45 546.037 16.4271)" fill="#D74242"/>
<rect x="549.147" y="19.5376" width="4.39881" height="764.593" transform="rotate(45 549.147 19.5376)" fill="#F5F5F5"/>
<rect x="552.257" y="22.6481" width="4.39881" height="764.593" transform="rotate(45 552.257 22.6481)" fill="#D74242"/>
<rect x="555.368" y="25.7585" width="4.39881" height="764.593" transform="rotate(45 555.368 25.7585)" fill="#F5F5F5"/>
<rect x="558.478" y="28.8688" width="4.39881" height="764.593" transform="rotate(45 558.478 28.8688)" fill="#D74242"/>
<rect x="561.589" y="31.9792" width="4.39881" height="764.593" transform="rotate(45 561.589 31.9792)" fill="#F5F5F5"/>
<rect x="564.699" y="35.0897" width="4.39881" height="764.593" transform="rotate(45 564.699 35.0897)" fill="#D74242"/>
<rect x="567.81" y="38.2002" width="4.39881" height="764.593" transform="rotate(45 567.81 38.2002)" fill="#F5F5F5"/>
<rect x="570.92" y="41.3104" width="4.39881" height="764.593" transform="rotate(45 570.92 41.3104)" fill="#D74242"/>
<rect x="574.03" y="44.4209" width="4.39881" height="764.593" transform="rotate(45 574.03 44.4209)" fill="#F5F5F5"/>
<rect x="577.141" y="47.5314" width="4.39881" height="764.593" transform="rotate(45 577.141 47.5314)" fill="#D74242"/>
<rect x="580.251" y="50.6418" width="4.39881" height="764.593" transform="rotate(45 580.251 50.6418)" fill="#F5F5F5"/>
<rect x="583.362" y="53.7522" width="4.39881" height="764.593" transform="rotate(45 583.362 53.7522)" fill="#D74242"/>
<rect x="586.472" y="56.8627" width="4.39881" height="764.593" transform="rotate(45 586.472 56.8627)" fill="#F5F5F5"/>
<rect x="589.583" y="59.9731" width="4.39881" height="764.593" transform="rotate(45 589.583 59.9731)" fill="#D74242"/>
<rect x="592.693" y="63.0836" width="4.39881" height="764.593" transform="rotate(45 592.693 63.0836)" fill="#F5F5F5"/>
<rect x="595.803" y="66.194" width="4.39881" height="764.593" transform="rotate(45 595.803 66.194)" fill="#D74242"/>
<rect x="598.914" y="69.3044" width="4.39881" height="764.593" transform="rotate(45 598.914 69.3044)" fill="#F5F5F5"/>
<rect x="602.024" y="72.4147" width="4.39881" height="764.593" transform="rotate(45 602.024 72.4147)" fill="#D74242"/>
<rect x="605.135" y="75.5251" width="4.39881" height="764.593" transform="rotate(45 605.135 75.5251)" fill="#F5F5F5"/>
<rect x="608.245" y="78.6355" width="4.39881" height="764.593" transform="rotate(45 608.245 78.6355)" fill="#D74242"/>
<rect x="611.356" y="81.746" width="4.39881" height="764.593" transform="rotate(45 611.356 81.746)" fill="#F5F5F5"/>
<rect x="614.466" y="84.8564" width="4.39881" height="764.593" transform="rotate(45 614.466 84.8564)" fill="#D74242"/>
<rect x="617.576" y="87.9669" width="4.39881" height="764.593" transform="rotate(45 617.576 87.9669)" fill="#F5F5F5"/>
<rect x="620.687" y="91.0774" width="4.39881" height="764.593" transform="rotate(45 620.687 91.0774)" fill="#D74242"/>
<rect x="623.797" y="94.1879" width="4.39881" height="764.593" transform="rotate(45 623.797 94.1879)" fill="#F5F5F5"/>
<rect x="626.908" y="97.298" width="4.39881" height="764.593" transform="rotate(45 626.908 97.298)" fill="#D74242"/>
<rect x="630.018" y="100.408" width="4.39881" height="764.593" transform="rotate(45 630.018 100.408)" fill="#F5F5F5"/>
<rect x="633.129" y="103.519" width="4.39881" height="764.593" transform="rotate(45 633.129 103.519)" fill="#D74242"/>
<rect x="636.239" y="106.63" width="4.39881" height="764.593" transform="rotate(45 636.239 106.63)" fill="#F5F5F5"/>
<rect x="639.35" y="109.74" width="4.39881" height="764.593" transform="rotate(45 639.35 109.74)" fill="#D74242"/>
<rect x="642.46" y="112.85" width="4.39881" height="764.593" transform="rotate(45 642.46 112.85)" fill="#F5F5F5"/>
<rect x="645.57" y="115.961" width="4.39881" height="764.593" transform="rotate(45 645.57 115.961)" fill="#D74242"/>
<rect x="648.681" y="119.071" width="4.39881" height="764.593" transform="rotate(45 648.681 119.071)" fill="#F5F5F5"/>
<rect x="651.791" y="122.182" width="4.39881" height="764.593" transform="rotate(45 651.791 122.182)" fill="#D74242"/>
<rect x="654.902" y="125.292" width="4.39881" height="764.593" transform="rotate(45 654.902 125.292)" fill="#F5F5F5"/>
<rect x="658.012" y="128.402" width="4.39881" height="764.593" transform="rotate(45 658.012 128.402)" fill="#D74242"/>
<rect x="661.123" y="131.513" width="4.39881" height="764.593" transform="rotate(45 661.123 131.513)" fill="#F5F5F5"/>
<rect x="658.012" y="128.402" width="4.39881" height="764.593" transform="rotate(45 658.012 128.402)" fill="#D74242"/>
<rect x="661.123" y="131.513" width="4.39881" height="764.593" transform="rotate(45 661.123 131.513)" fill="#F5F5F5"/>
<rect x="658.012" y="128.402" width="4.39881" height="764.593" transform="rotate(45 658.012 128.402)" fill="#D74242"/>
<rect x="661.123" y="131.513" width="4.39881" height="764.593" transform="rotate(45 661.123 131.513)" fill="#F5F5F5"/>
<rect x="658.012" y="128.402" width="4.39881" height="764.593" transform="rotate(45 658.012 128.402)" fill="#D74242"/>
<rect x="661.123" y="131.513" width="4.39881" height="764.593" transform="rotate(45 661.123 131.513)" fill="#F5F5F5"/>
<rect x="658.012" y="128.402" width="4.39881" height="764.593" transform="rotate(45 658.012 128.402)" fill="#D74242"/>
<rect x="661.123" y="131.513" width="4.39881" height="764.593" transform="rotate(45 661.123 131.513)" fill="#F5F5F5"/>
<rect x="658.012" y="128.402" width="4.39881" height="764.593" transform="rotate(45 658.012 128.402)" fill="#D74242"/>
<rect x="661.123" y="131.513" width="4.39881" height="764.593" transform="rotate(45 661.123 131.513)" fill="#F5F5F5"/>
<rect x="658.012" y="128.402" width="4.39881" height="764.593" transform="rotate(45 658.012 128.402)" fill="#D74242"/>
<rect x="661.123" y="131.513" width="4.39881" height="764.593" transform="rotate(45 661.123 131.513)" fill="#F5F5F5"/>
<rect x="658.012" y="128.402" width="4.39881" height="764.593" transform="rotate(45 658.012 128.402)" fill="#D74242"/>
<rect x="661.123" y="131.513" width="4.39881" height="764.593" transform="rotate(45 661.123 131.513)" fill="#F5F5F5"/>
<rect x="658.012" y="128.402" width="4.39881" height="764.593" transform="rotate(45 658.012 128.402)" fill="#D74242"/>
<rect x="661.123" y="131.513" width="4.39881" height="764.593" transform="rotate(45 661.123 131.513)" fill="#F5F5F5"/>
<rect x="664.233" y="134.623" width="4.39881" height="764.593" transform="rotate(45 664.233 134.623)" fill="#D74242"/>
<rect x="667.344" y="137.734" width="4.39881" height="764.593" transform="rotate(45 667.344 137.734)" fill="#F5F5F5"/>
<rect x="670.454" y="140.844" width="4.39881" height="764.593" transform="rotate(45 670.454 140.844)" fill="#D74242"/>
<rect x="673.564" y="143.955" width="4.39881" height="764.593" transform="rotate(45 673.564 143.955)" fill="#F5F5F5"/>
<rect x="676.675" y="147.065" width="4.39881" height="764.593" transform="rotate(45 676.675 147.065)" fill="#D74242"/>
<rect x="679.785" y="150.175" width="4.39881" height="764.593" transform="rotate(45 679.785 150.175)" fill="#F5F5F5"/>
<rect x="682.896" y="153.286" width="4.39881" height="764.593" transform="rotate(45 682.896 153.286)" fill="#D74242"/>
<rect x="686.006" y="156.396" width="4.39881" height="764.593" transform="rotate(45 686.006 156.396)" fill="#F5F5F5"/>
<rect x="689.116" y="159.507" width="4.39881" height="764.593" transform="rotate(45 689.116 159.507)" fill="#D74242"/>
<rect x="692.227" y="162.617" width="4.39881" height="764.593" transform="rotate(45 692.227 162.617)" fill="#F5F5F5"/>
<rect x="695.337" y="165.728" width="4.39881" height="764.593" transform="rotate(45 695.337 165.728)" fill="#D74242"/>
<rect x="698.448" y="168.838" width="4.39881" height="764.593" transform="rotate(45 698.448 168.838)" fill="#F5F5F5"/>
<rect x="701.558" y="171.948" width="4.39881" height="764.593" transform="rotate(45 701.558 171.948)" fill="#D74242"/>
<rect x="704.668" y="175.059" width="4.39881" height="764.593" transform="rotate(45 704.668 175.059)" fill="#F5F5F5"/>
<rect x="707.779" y="178.169" width="4.39881" height="764.593" transform="rotate(45 707.779 178.169)" fill="#D74242"/>
<rect x="710.889" y="181.28" width="4.39881" height="764.593" transform="rotate(45 710.889 181.28)" fill="#F5F5F5"/>
</g>
</g>
</g>
<rect x="21" y="21" width="318" height="423" rx="16" fill="white"/>
<defs>
<filter id="filter0_bd_76_692" x="-4" y="-4" width="368" height="477" filterUnits="userSpaceOnUse" color-interpolation-filters="sRGB">
<feFlood flood-opacity="0" result="BackgroundImageFix"/>
<feGaussianBlur in="BackgroundImageFix" stdDeviation="10"/>
<feComposite in2="SourceAlpha" operator="in" result="effect1_backgroundBlur_76_692"/>
<feColorMatrix in="SourceAlpha" type="matrix" values="0 0 0 0 0 0 0 0 0 0 0 0 0 0 0 0 0 0 127 0" result="hardAlpha"/>
<feOffset dy="4"/>
<feGaussianBlur stdDeviation="10"/>
<feComposite in2="hardAlpha" operator="out"/>
<feColorMatrix type="matrix" values="0 0 0 0 0 0 0 0 0 0 0 0 0 0 0 0 0 0 0.15 0"/>
<feBlend mode="normal" in2="effect1_backgroundBlur_76_692" result="effect2_dropShadow_76_692"/>
<feBlend mode="normal" in="SourceGraphic" in2="effect2_dropShadow_76_692" result="shape"/>
</filter>
<clipPath id="clip0_76_692">
<rect x="16" y="16" width="328" height="433" rx="20" fill="white"/>
</clipPath>
<clipPath id="clip1_76_692">
<rect width="920" height="920" fill="white" transform="translate(-280 -227)"/>
</clipPath>
</defs>
</svg>
