<svg width="328" height="433" viewBox="0 0 328 433" fill="none" xmlns="http://www.w3.org/2000/svg">
<g clip-path="url(#clip0_77_469)">
<g clip-path="url(#clip1_77_469)">
<rect width="920" height="920" transform="translate(-296 -243)" fill="white"/>
<rect x="225.009" y="-328.679" width="4.39881" height="764.593" transform="rotate(45 225.009 -328.679)" fill="#D74242"/>
<rect x="228.119" y="-325.568" width="4.39881" height="764.593" transform="rotate(45 228.119 -325.568)" fill="#F5F5F5"/>
<rect x="231.23" y="-322.458" width="4.39881" height="764.593" transform="rotate(45 231.23 -322.458)" fill="#D74242"/>
<rect x="234.34" y="-319.347" width="4.39881" height="764.593" transform="rotate(45 234.34 -319.347)" fill="#F5F5F5"/>
<rect x="237.451" y="-316.237" width="4.39881" height="764.593" transform="rotate(45 237.451 -316.237)" fill="#D74242"/>
<rect x="240.561" y="-313.126" width="4.39881" height="764.593" transform="rotate(45 240.561 -313.126)" fill="#F5F5F5"/>
<rect x="243.672" y="-310.016" width="4.39881" height="764.593" transform="rotate(45 243.672 -310.016)" fill="#D74242"/>
<rect x="246.782" y="-306.906" width="4.39881" height="764.593" transform="rotate(45 246.782 -306.906)" fill="#F5F5F5"/>
<rect x="249.892" y="-303.795" width="4.39881" height="764.593" transform="rotate(45 249.892 -303.795)" fill="#D74242"/>
<rect x="253.003" y="-300.685" width="4.39881" height="764.593" transform="rotate(45 253.003 -300.685)" fill="#F5F5F5"/>
<rect x="256.113" y="-297.574" width="4.39881" height="764.593" transform="rotate(45 256.113 -297.574)" fill="#D74242"/>
<rect x="259.224" y="-294.464" width="4.39881" height="764.593" transform="rotate(45 259.224 -294.464)" fill="#F5F5F5"/>
<rect x="262.334" y="-291.353" width="4.39881" height="764.593" transform="rotate(45 262.334 -291.353)" fill="#D74242"/>
<rect x="265.444" y="-288.243" width="4.39881" height="764.593" transform="rotate(45 265.444 -288.243)" fill="#F5F5F5"/>
<rect x="268.555" y="-285.133" width="4.39881" height="764.593" transform="rotate(45 268.555 -285.133)" fill="#D74242"/>
<rect x="271.665" y="-282.022" width="4.39881" height="764.593" transform="rotate(45 271.665 -282.022)" fill="#F5F5F5"/>
<rect x="274.776" y="-278.912" width="4.39881" height="764.593" transform="rotate(45 274.776 -278.912)" fill="#D74242"/>
<rect x="277.886" y="-275.801" width="4.39881" height="764.593" transform="rotate(45 277.886 -275.801)" fill="#F5F5F5"/>
<rect x="280.997" y="-272.691" width="4.39881" height="764.593" transform="rotate(45 280.997 -272.691)" fill="#D74242"/>
<rect x="284.107" y="-269.581" width="4.39881" height="764.593" transform="rotate(45 284.107 -269.581)" fill="#F5F5F5"/>
<rect x="287.217" y="-266.47" width="4.39881" height="764.593" transform="rotate(45 287.217 -266.47)" fill="#D74242"/>
<rect x="290.328" y="-263.36" width="4.39881" height="764.593" transform="rotate(45 290.328 -263.36)" fill="#F5F5F5"/>
<rect x="293.438" y="-260.249" width="4.39881" height="764.593" transform="rotate(45 293.438 -260.249)" fill="#D74242"/>
<rect x="296.549" y="-257.139" width="4.39881" height="764.593" transform="rotate(45 296.549 -257.139)" fill="#F5F5F5"/>
<rect x="299.659" y="-254.028" width="4.39881" height="764.593" transform="rotate(45 299.659 -254.028)" fill="#D74242"/>
<rect x="302.77" y="-250.918" width="4.39881" height="764.593" transform="rotate(45 302.77 -250.918)" fill="#F5F5F5"/>
<rect x="305.88" y="-247.807" width="4.39881" height="764.593" transform="rotate(45 305.88 -247.807)" fill="#D74242"/>
<rect x="308.99" y="-244.697" width="4.39881" height="764.593" transform="rotate(45 308.99 -244.697)" fill="#F5F5F5"/>
<rect x="312.101" y="-241.586" width="4.39881" height="764.593" transform="rotate(45 312.101 -241.586)" fill="#D74242"/>
<rect x="315.211" y="-238.476" width="4.39881" height="764.593" transform="rotate(45 315.211 -238.476)" fill="#F5F5F5"/>
<rect x="318.322" y="-235.366" width="4.39881" height="764.593" transform="rotate(45 318.322 -235.366)" fill="#D74242"/>
<rect x="321.432" y="-232.255" width="4.39881" height="764.593" transform="rotate(45 321.432 -232.255)" fill="#F5F5F5"/>
<rect x="324.542" y="-229.145" width="4.39881" height="764.593" transform="rotate(45 324.542 -229.145)" fill="#D74242"/>
<rect x="327.653" y="-226.034" width="4.39881" height="764.593" transform="rotate(45 327.653 -226.034)" fill="#F5F5F5"/>
<rect x="330.763" y="-222.924" width="4.39881" height="764.593" transform="rotate(45 330.763 -222.924)" fill="#D74242"/>
<rect x="333.874" y="-219.813" width="4.39881" height="764.593" transform="rotate(45 333.874 -219.813)" fill="#F5F5F5"/>
<rect x="336.984" y="-216.703" width="4.39881" height="764.593" transform="rotate(45 336.984 -216.703)" fill="#D74242"/>
<rect x="340.095" y="-213.593" width="4.39881" height="764.593" transform="rotate(45 340.095 -213.593)" fill="#F5F5F5"/>
<rect x="343.205" y="-210.482" width="4.39881" height="764.593" transform="rotate(45 343.205 -210.482)" fill="#D74242"/>
<rect x="346.315" y="-207.372" width="4.39881" height="764.593" transform="rotate(45 346.315 -207.372)" fill="#F5F5F5"/>
<rect x="349.426" y="-204.261" width="4.39881" height="764.593" transform="rotate(45 349.426 -204.261)" fill="#D74242"/>
<rect x="352.536" y="-201.151" width="4.39881" height="764.593" transform="rotate(45 352.536 -201.151)" fill="#F5F5F5"/>
<rect x="355.647" y="-198.041" width="4.39881" height="764.593" transform="rotate(45 355.647 -198.041)" fill="#D74242"/>
<rect x="358.757" y="-194.93" width="4.39881" height="764.593" transform="rotate(45 358.757 -194.93)" fill="#F5F5F5"/>
<rect x="361.868" y="-191.82" width="4.39881" height="764.593" transform="rotate(45 361.868 -191.82)" fill="#D74242"/>
<rect x="364.978" y="-188.709" width="4.39881" height="764.593" transform="rotate(45 364.978 -188.709)" fill="#F5F5F5"/>
<rect x="368.088" y="-185.599" width="4.39881" height="764.593" transform="rotate(45 368.088 -185.599)" fill="#D74242"/>
<rect x="371.199" y="-182.488" width="4.39881" height="764.593" transform="rotate(45 371.199 -182.488)" fill="#F5F5F5"/>
<rect x="374.309" y="-179.378" width="4.39881" height="764.593" transform="rotate(45 374.309 -179.378)" fill="#D74242"/>
<rect x="377.42" y="-176.267" width="4.39881" height="764.593" transform="rotate(45 377.42 -176.267)" fill="#F5F5F5"/>
<rect x="380.53" y="-173.157" width="4.39881" height="764.593" transform="rotate(45 380.53 -173.157)" fill="#D74242"/>
<rect x="383.641" y="-170.047" width="4.39881" height="764.593" transform="rotate(45 383.641 -170.047)" fill="#F5F5F5"/>
<rect x="386.751" y="-166.936" width="4.39881" height="764.593" transform="rotate(45 386.751 -166.936)" fill="#D74242"/>
<rect x="389.861" y="-163.826" width="4.39881" height="764.593" transform="rotate(45 389.861 -163.826)" fill="#F5F5F5"/>
<rect x="392.972" y="-160.715" width="4.39881" height="764.593" transform="rotate(45 392.972 -160.715)" fill="#D74242"/>
<rect x="396.082" y="-157.605" width="4.39881" height="764.593" transform="rotate(45 396.082 -157.605)" fill="#F5F5F5"/>
<rect x="399.193" y="-154.495" width="4.39881" height="764.593" transform="rotate(45 399.193 -154.495)" fill="#D74242"/>
<rect x="402.303" y="-151.384" width="4.39881" height="764.593" transform="rotate(45 402.303 -151.384)" fill="#F5F5F5"/>
<rect x="405.414" y="-148.274" width="4.39881" height="764.593" transform="rotate(45 405.414 -148.274)" fill="#D74242"/>
<rect x="408.524" y="-145.163" width="4.39881" height="764.593" transform="rotate(45 408.524 -145.163)" fill="#F5F5F5"/>
<rect x="411.635" y="-142.053" width="4.39881" height="764.593" transform="rotate(45 411.635 -142.053)" fill="#D74242"/>
<rect x="414.745" y="-138.943" width="4.39881" height="764.593" transform="rotate(45 414.745 -138.943)" fill="#F5F5F5"/>
<rect x="411.635" y="-142.053" width="4.39881" height="764.593" transform="rotate(45 411.635 -142.053)" fill="#D74242"/>
<rect x="414.745" y="-138.943" width="4.39881" height="764.593" transform="rotate(45 414.745 -138.943)" fill="#F5F5F5"/>
<rect x="411.635" y="-142.053" width="4.39881" height="764.593" transform="rotate(45 411.635 -142.053)" fill="#D74242"/>
<rect x="414.745" y="-138.943" width="4.39881" height="764.593" transform="rotate(45 414.745 -138.943)" fill="#F5F5F5"/>
<rect x="411.635" y="-142.053" width="4.39881" height="764.593" transform="rotate(45 411.635 -142.053)" fill="#D74242"/>
<rect x="414.745" y="-138.943" width="4.39881" height="764.593" transform="rotate(45 414.745 -138.943)" fill="#F5F5F5"/>
<rect x="411.635" y="-142.053" width="4.39881" height="764.593" transform="rotate(45 411.635 -142.053)" fill="#D74242"/>
<rect x="414.745" y="-138.943" width="4.39881" height="764.593" transform="rotate(45 414.745 -138.943)" fill="#F5F5F5"/>
<rect x="411.635" y="-142.053" width="4.39881" height="764.593" transform="rotate(45 411.635 -142.053)" fill="#D74242"/>
<rect x="414.745" y="-138.943" width="4.39881" height="764.593" transform="rotate(45 414.745 -138.943)" fill="#F5F5F5"/>
<rect x="411.635" y="-142.053" width="4.39881" height="764.593" transform="rotate(45 411.635 -142.053)" fill="#D74242"/>
<rect x="414.745" y="-138.943" width="4.39881" height="764.593" transform="rotate(45 414.745 -138.943)" fill="#F5F5F5"/>
<rect x="411.635" y="-142.053" width="4.39881" height="764.593" transform="rotate(45 411.635 -142.053)" fill="#D74242"/>
<rect x="414.745" y="-138.943" width="4.39881" height="764.593" transform="rotate(45 414.745 -138.943)" fill="#F5F5F5"/>
<rect x="411.635" y="-142.053" width="4.39881" height="764.593" transform="rotate(45 411.635 -142.053)" fill="#D74242"/>
<rect x="414.745" y="-138.943" width="4.39881" height="764.593" transform="rotate(45 414.745 -138.943)" fill="#F5F5F5"/>
<rect x="417.855" y="-135.832" width="4.39881" height="764.593" transform="rotate(45 417.855 -135.832)" fill="#D74242"/>
<rect x="420.966" y="-132.722" width="4.39881" height="764.593" transform="rotate(45 420.966 -132.722)" fill="#F5F5F5"/>
<rect x="424.076" y="-129.611" width="4.39881" height="764.593" transform="rotate(45 424.076 -129.611)" fill="#D74242"/>
<rect x="427.187" y="-126.501" width="4.39881" height="764.593" transform="rotate(45 427.187 -126.501)" fill="#F5F5F5"/>
<rect x="430.297" y="-123.39" width="4.39881" height="764.593" transform="rotate(45 430.297 -123.39)" fill="#D74242"/>
<rect x="433.408" y="-120.28" width="4.39881" height="764.593" transform="rotate(45 433.408 -120.28)" fill="#F5F5F5"/>
<rect x="436.518" y="-117.169" width="4.39881" height="764.593" transform="rotate(45 436.518 -117.169)" fill="#D74242"/>
<rect x="439.628" y="-114.059" width="4.39881" height="764.593" transform="rotate(45 439.628 -114.059)" fill="#F5F5F5"/>
<rect x="442.739" y="-110.948" width="4.39881" height="764.593" transform="rotate(45 442.739 -110.948)" fill="#D74242"/>
<rect x="445.849" y="-107.838" width="4.39881" height="764.593" transform="rotate(45 445.849 -107.838)" fill="#F5F5F5"/>
<rect x="448.96" y="-104.728" width="4.39881" height="764.593" transform="rotate(45 448.96 -104.728)" fill="#D74242"/>
<rect x="452.07" y="-101.617" width="4.39881" height="764.593" transform="rotate(45 452.07 -101.617)" fill="#F5F5F5"/>
<rect x="455.18" y="-98.5067" width="4.39881" height="764.593" transform="rotate(45 455.18 -98.5067)" fill="#D74242"/>
<rect x="458.291" y="-95.3962" width="4.39881" height="764.593" transform="rotate(45 458.291 -95.3962)" fill="#F5F5F5"/>
<rect x="461.401" y="-92.286" width="4.39881" height="764.593" transform="rotate(45 461.401 -92.286)" fill="#D74242"/>
<rect x="464.512" y="-89.1755" width="4.39881" height="764.593" transform="rotate(45 464.512 -89.1755)" fill="#F5F5F5"/>
<rect x="455.386" y="-74.2233" width="4.39881" height="764.593" transform="rotate(45 455.386 -74.2233)" fill="#D74242"/>
<rect x="458.497" y="-71.1128" width="4.39881" height="764.593" transform="rotate(45 458.497 -71.1128)" fill="#F5F5F5"/>
<rect x="461.607" y="-68.0024" width="4.39881" height="764.593" transform="rotate(45 461.607 -68.0024)" fill="#D74242"/>
<rect x="464.718" y="-64.892" width="4.39881" height="764.593" transform="rotate(45 464.718 -64.892)" fill="#F5F5F5"/>
<rect x="467.828" y="-61.7815" width="4.39881" height="764.593" transform="rotate(45 467.828 -61.7815)" fill="#D74242"/>
<rect x="470.939" y="-58.671" width="4.39881" height="764.593" transform="rotate(45 470.939 -58.671)" fill="#F5F5F5"/>
<rect x="474.049" y="-55.5608" width="4.39881" height="764.593" transform="rotate(45 474.049 -55.5608)" fill="#D74242"/>
<rect x="477.159" y="-52.4503" width="4.39881" height="764.593" transform="rotate(45 477.159 -52.4503)" fill="#F5F5F5"/>
<rect x="480.27" y="-49.3398" width="4.39881" height="764.593" transform="rotate(45 480.27 -49.3398)" fill="#D74242"/>
<rect x="483.38" y="-46.2294" width="4.39881" height="764.593" transform="rotate(45 483.38 -46.2294)" fill="#F5F5F5"/>
<rect x="486.491" y="-43.1189" width="4.39881" height="764.593" transform="rotate(45 486.491 -43.1189)" fill="#D74242"/>
<rect x="489.601" y="-40.0084" width="4.39881" height="764.593" transform="rotate(45 489.601 -40.0084)" fill="#F5F5F5"/>
<rect x="492.712" y="-36.8982" width="4.39881" height="764.593" transform="rotate(45 492.712 -36.8982)" fill="#D74242"/>
<rect x="495.822" y="-33.7877" width="4.39881" height="764.593" transform="rotate(45 495.822 -33.7877)" fill="#F5F5F5"/>
<rect x="498.932" y="-30.6774" width="4.39881" height="764.593" transform="rotate(45 498.932 -30.6774)" fill="#D74242"/>
<rect x="502.043" y="-27.5669" width="4.39881" height="764.593" transform="rotate(45 502.043 -27.5669)" fill="#F5F5F5"/>
<rect x="505.153" y="-24.4565" width="4.39881" height="764.593" transform="rotate(45 505.153 -24.4565)" fill="#D74242"/>
<rect x="508.264" y="-21.3461" width="4.39881" height="764.593" transform="rotate(45 508.264 -21.3461)" fill="#F5F5F5"/>
<rect x="511.374" y="-18.2356" width="4.39881" height="764.593" transform="rotate(45 511.374 -18.2356)" fill="#D74242"/>
<rect x="514.485" y="-15.1251" width="4.39881" height="764.593" transform="rotate(45 514.485 -15.1251)" fill="#F5F5F5"/>
<rect x="517.595" y="-12.0148" width="4.39881" height="764.593" transform="rotate(45 517.595 -12.0148)" fill="#D74242"/>
<rect x="520.705" y="-8.9043" width="4.39881" height="764.593" transform="rotate(45 520.705 -8.9043)" fill="#F5F5F5"/>
<rect x="523.816" y="-5.79382" width="4.39881" height="764.593" transform="rotate(45 523.816 -5.79382)" fill="#D74242"/>
<rect x="526.926" y="-2.68335" width="4.39881" height="764.593" transform="rotate(45 526.926 -2.68335)" fill="#F5F5F5"/>
<rect x="530.037" y="0.427124" width="4.39881" height="764.593" transform="rotate(45 530.037 0.427124)" fill="#D74242"/>
<rect x="533.147" y="3.5376" width="4.39881" height="764.593" transform="rotate(45 533.147 3.5376)" fill="#F5F5F5"/>
<rect x="536.257" y="6.64807" width="4.39881" height="764.593" transform="rotate(45 536.257 6.64807)" fill="#D74242"/>
<rect x="539.368" y="9.75854" width="4.39881" height="764.593" transform="rotate(45 539.368 9.75854)" fill="#F5F5F5"/>
<rect x="542.478" y="12.8688" width="4.39881" height="764.593" transform="rotate(45 542.478 12.8688)" fill="#D74242"/>
<rect x="545.589" y="15.9792" width="4.39881" height="764.593" transform="rotate(45 545.589 15.9792)" fill="#F5F5F5"/>
<rect x="548.699" y="19.0897" width="4.39881" height="764.593" transform="rotate(45 548.699 19.0897)" fill="#D74242"/>
<rect x="551.81" y="22.2002" width="4.39881" height="764.593" transform="rotate(45 551.81 22.2002)" fill="#F5F5F5"/>
<rect x="554.92" y="25.3104" width="4.39881" height="764.593" transform="rotate(45 554.92 25.3104)" fill="#D74242"/>
<rect x="558.03" y="28.4209" width="4.39881" height="764.593" transform="rotate(45 558.03 28.4209)" fill="#F5F5F5"/>
<rect x="561.141" y="31.5314" width="4.39881" height="764.593" transform="rotate(45 561.141 31.5314)" fill="#D74242"/>
<rect x="564.251" y="34.6418" width="4.39881" height="764.593" transform="rotate(45 564.251 34.6418)" fill="#F5F5F5"/>
<rect x="567.362" y="37.7522" width="4.39881" height="764.593" transform="rotate(45 567.362 37.7522)" fill="#D74242"/>
<rect x="570.472" y="40.8627" width="4.39881" height="764.593" transform="rotate(45 570.472 40.8627)" fill="#F5F5F5"/>
<rect x="573.583" y="43.9731" width="4.39881" height="764.593" transform="rotate(45 573.583 43.9731)" fill="#D74242"/>
<rect x="576.693" y="47.0836" width="4.39881" height="764.593" transform="rotate(45 576.693 47.0836)" fill="#F5F5F5"/>
<rect x="579.803" y="50.194" width="4.39881" height="764.593" transform="rotate(45 579.803 50.194)" fill="#D74242"/>
<rect x="582.914" y="53.3044" width="4.39881" height="764.593" transform="rotate(45 582.914 53.3044)" fill="#F5F5F5"/>
<rect x="586.024" y="56.4147" width="4.39881" height="764.593" transform="rotate(45 586.024 56.4147)" fill="#D74242"/>
<rect x="589.135" y="59.5251" width="4.39881" height="764.593" transform="rotate(45 589.135 59.5251)" fill="#F5F5F5"/>
<rect x="592.245" y="62.6355" width="4.39881" height="764.593" transform="rotate(45 592.245 62.6355)" fill="#D74242"/>
<rect x="595.356" y="65.746" width="4.39881" height="764.593" transform="rotate(45 595.356 65.746)" fill="#F5F5F5"/>
<rect x="598.466" y="68.8564" width="4.39881" height="764.593" transform="rotate(45 598.466 68.8564)" fill="#D74242"/>
<rect x="601.576" y="71.9669" width="4.39881" height="764.593" transform="rotate(45 601.576 71.9669)" fill="#F5F5F5"/>
<rect x="604.687" y="75.0774" width="4.39881" height="764.593" transform="rotate(45 604.687 75.0774)" fill="#D74242"/>
<rect x="607.797" y="78.1879" width="4.39881" height="764.593" transform="rotate(45 607.797 78.1879)" fill="#F5F5F5"/>
<rect x="610.908" y="81.298" width="4.39881" height="764.593" transform="rotate(45 610.908 81.298)" fill="#D74242"/>
<rect x="614.018" y="84.4084" width="4.39881" height="764.593" transform="rotate(45 614.018 84.4084)" fill="#F5F5F5"/>
<rect x="617.129" y="87.519" width="4.39881" height="764.593" transform="rotate(45 617.129 87.519)" fill="#D74242"/>
<rect x="620.239" y="90.6295" width="4.39881" height="764.593" transform="rotate(45 620.239 90.6295)" fill="#F5F5F5"/>
<rect x="623.35" y="93.7399" width="4.39881" height="764.593" transform="rotate(45 623.35 93.7399)" fill="#D74242"/>
<rect x="626.46" y="96.8503" width="4.39881" height="764.593" transform="rotate(45 626.46 96.8503)" fill="#F5F5F5"/>
<rect x="629.57" y="99.9608" width="4.39881" height="764.593" transform="rotate(45 629.57 99.9608)" fill="#D74242"/>
<rect x="632.681" y="103.071" width="4.39881" height="764.593" transform="rotate(45 632.681 103.071)" fill="#F5F5F5"/>
<rect x="635.791" y="106.182" width="4.39881" height="764.593" transform="rotate(45 635.791 106.182)" fill="#D74242"/>
<rect x="638.902" y="109.292" width="4.39881" height="764.593" transform="rotate(45 638.902 109.292)" fill="#F5F5F5"/>
<rect x="642.012" y="112.402" width="4.39881" height="764.593" transform="rotate(45 642.012 112.402)" fill="#D74242"/>
<rect x="645.123" y="115.513" width="4.39881" height="764.593" transform="rotate(45 645.123 115.513)" fill="#F5F5F5"/>
<rect x="642.012" y="112.402" width="4.39881" height="764.593" transform="rotate(45 642.012 112.402)" fill="#D74242"/>
<rect x="645.123" y="115.513" width="4.39881" height="764.593" transform="rotate(45 645.123 115.513)" fill="#F5F5F5"/>
<rect x="642.012" y="112.402" width="4.39881" height="764.593" transform="rotate(45 642.012 112.402)" fill="#D74242"/>
<rect x="645.123" y="115.513" width="4.39881" height="764.593" transform="rotate(45 645.123 115.513)" fill="#F5F5F5"/>
<rect x="642.012" y="112.402" width="4.39881" height="764.593" transform="rotate(45 642.012 112.402)" fill="#D74242"/>
<rect x="645.123" y="115.513" width="4.39881" height="764.593" transform="rotate(45 645.123 115.513)" fill="#F5F5F5"/>
<rect x="642.012" y="112.402" width="4.39881" height="764.593" transform="rotate(45 642.012 112.402)" fill="#D74242"/>
<rect x="645.123" y="115.513" width="4.39881" height="764.593" transform="rotate(45 645.123 115.513)" fill="#F5F5F5"/>
<rect x="642.012" y="112.402" width="4.39881" height="764.593" transform="rotate(45 642.012 112.402)" fill="#D74242"/>
<rect x="645.123" y="115.513" width="4.39881" height="764.593" transform="rotate(45 645.123 115.513)" fill="#F5F5F5"/>
<rect x="642.012" y="112.402" width="4.39881" height="764.593" transform="rotate(45 642.012 112.402)" fill="#D74242"/>
<rect x="645.123" y="115.513" width="4.39881" height="764.593" transform="rotate(45 645.123 115.513)" fill="#F5F5F5"/>
<rect x="642.012" y="112.402" width="4.39881" height="764.593" transform="rotate(45 642.012 112.402)" fill="#D74242"/>
<rect x="645.123" y="115.513" width="4.39881" height="764.593" transform="rotate(45 645.123 115.513)" fill="#F5F5F5"/>
<rect x="642.012" y="112.402" width="4.39881" height="764.593" transform="rotate(45 642.012 112.402)" fill="#D74242"/>
<rect x="645.123" y="115.513" width="4.39881" height="764.593" transform="rotate(45 645.123 115.513)" fill="#F5F5F5"/>
<rect x="648.233" y="118.623" width="4.39881" height="764.593" transform="rotate(45 648.233 118.623)" fill="#D74242"/>
<rect x="651.344" y="121.734" width="4.39881" height="764.593" transform="rotate(45 651.344 121.734)" fill="#F5F5F5"/>
<rect x="654.454" y="124.844" width="4.39881" height="764.593" transform="rotate(45 654.454 124.844)" fill="#D74242"/>
<rect x="657.564" y="127.955" width="4.39881" height="764.593" transform="rotate(45 657.564 127.955)" fill="#F5F5F5"/>
<rect x="660.675" y="131.065" width="4.39881" height="764.593" transform="rotate(45 660.675 131.065)" fill="#D74242"/>
<rect x="663.785" y="134.175" width="4.39881" height="764.593" transform="rotate(45 663.785 134.175)" fill="#F5F5F5"/>
<rect x="666.896" y="137.286" width="4.39881" height="764.593" transform="rotate(45 666.896 137.286)" fill="#D74242"/>
<rect x="670.006" y="140.396" width="4.39881" height="764.593" transform="rotate(45 670.006 140.396)" fill="#F5F5F5"/>
<rect x="673.116" y="143.507" width="4.39881" height="764.593" transform="rotate(45 673.116 143.507)" fill="#D74242"/>
<rect x="676.227" y="146.617" width="4.39881" height="764.593" transform="rotate(45 676.227 146.617)" fill="#F5F5F5"/>
<rect x="679.337" y="149.728" width="4.39881" height="764.593" transform="rotate(45 679.337 149.728)" fill="#D74242"/>
<rect x="682.448" y="152.838" width="4.39881" height="764.593" transform="rotate(45 682.448 152.838)" fill="#F5F5F5"/>
<rect x="685.558" y="155.948" width="4.39881" height="764.593" transform="rotate(45 685.558 155.948)" fill="#D74242"/>
<rect x="688.668" y="159.059" width="4.39881" height="764.593" transform="rotate(45 688.668 159.059)" fill="#F5F5F5"/>
<rect x="691.779" y="162.169" width="4.39881" height="764.593" transform="rotate(45 691.779 162.169)" fill="#D74242"/>
<rect x="694.889" y="165.28" width="4.39881" height="764.593" transform="rotate(45 694.889 165.28)" fill="#F5F5F5"/>
</g>
</g>
<defs>
<clipPath id="clip0_77_469">
<rect width="328" height="433" rx="20" fill="white"/>
</clipPath>
<clipPath id="clip1_77_469">
<rect width="920" height="920" fill="white" transform="translate(-296 -243)"/>
</clipPath>
</defs>
</svg>
